#N canvas 1683 273 397 466 10;
#X obj 112 124 vsl 15 128 0 255 0 0 empty \$1nafader empty 0 -9 0 10
-33289 -262144 -33289 0 1;
#X obj 137 348 int \$1;
#X text 66 17 arg1-> channel num.;
#X obj 110 287 int;
#X obj 111 390 pack f f;
#X obj 110 317 t a b;
#X obj 102 262 nbx 3 14 0 256 0 0 empty empty empty 0 -8 0 10 -262144
-1 -1 0 256 0;
#X obj 100 101 cnv 15 40 20 empty empty \$1 15 8 0 12 -1 -262144 0
;
#X obj 113 418 s artnet_value;
#N canvas 1621 562 450 300 sel_color 0;
#X obj 56 14 inlet;
#X obj 56 44 sel R G B;
#X msg 58 241 color 13 12;
#X obj 145 265 s \$1nafader;
#X msg 74 199 color 16 12;
#X msg 91 165 color 28 12;
#X msg 108 116 color 12 12;
#X connect 0 0 1 0;
#X connect 1 0 2 0;
#X connect 1 1 4 0;
#X connect 1 2 5 0;
#X connect 1 3 6 0;
#X connect 2 0 3 0;
#X connect 4 0 3 0;
#X connect 5 0 3 0;
#X connect 6 0 3 0;
#X restore 232 199 pd sel_color;
#X obj 231 132 loadbang;
#X obj 231 163 symbol \$2;
#X text 64 47 arg2-> color (r \, g \, b \, default black);
#X connect 0 0 3 0;
#X connect 1 0 4 1;
#X connect 3 0 5 0;
#X connect 3 0 6 0;
#X connect 4 0 8 0;
#X connect 5 0 4 0;
#X connect 5 1 1 0;
#X connect 10 0 11 0;
#X connect 11 0 9 0;
#X coords 0 -1 1 1 40 180 2 100 100;
